<?xml version="1.0" encoding="UTF-8" standalone="no"?>
<!DOCTYPE svg PUBLIC "-//W3C//DTD SVG 1.1//EN"
 "http://www.w3.org/Graphics/SVG/1.1/DTD/svg11.dtd">
<!-- Generated by graphviz version 2.42.4 (0)
 -->
<!-- Title: dbus_dependencies Pages: 1 -->
<svg width="4067pt" height="305pt"
 viewBox="0.00 0.00 4067.20 305.20" xmlns="http://www.w3.org/2000/svg" xmlns:xlink="http://www.w3.org/1999/xlink">
<g id="graph0" class="graph" transform="scale(1 1) rotate(0) translate(21.6 283.6)">
<title>dbus_dependencies</title>
<polygon fill="#080a0f" stroke="transparent" points="-21.6,21.6 -21.6,-283.6 4045.6,-283.6 4045.6,21.6 -21.6,21.6"/>
<!-- com.cpis.engine -->
<g id="node1" class="node">
<title>com.cpis.engine</title>
<path fill="#0b1017" stroke="#6ee7b7" stroke-width="1.4" d="M104,-36C104,-36 12,-36 12,-36 6,-36 0,-30 0,-24 0,-24 0,-12 0,-12 0,-6 6,0 12,0 12,0 104,0 104,0 110,0 116,-6 116,-12 116,-12 116,-24 116,-24 116,-30 110,-36 104,-36"/>
<text text-anchor="middle" x="58" y="-15.2" font-family="DejaVu Sans" font-size="11.00" fill="#dcefd9">com.cpis.engine</text>
</g>
<!-- com.cpis.panel -->
<g id="node2" class="node">
<title>com.cpis.panel</title>
<path fill="#0b1017" stroke="#6ee7b7" stroke-width="1.4" d="M100.5,-149C100.5,-149 15.5,-149 15.5,-149 9.5,-149 3.5,-143 3.5,-137 3.5,-137 3.5,-125 3.5,-125 3.5,-119 9.5,-113 15.5,-113 15.5,-113 100.5,-113 100.5,-113 106.5,-113 112.5,-119 112.5,-125 112.5,-125 112.5,-137 112.5,-137 112.5,-143 106.5,-149 100.5,-149"/>
<text text-anchor="middle" x="58" y="-128.2" font-family="DejaVu Sans" font-size="11.00" fill="#dcefd9">com.cpis.panel</text>
</g>
<!-- com.cpis.panel&#45;&gt;com.cpis.engine -->
<g id="edge1" class="edge">
<title>com.cpis.panel&#45;&gt;com.cpis.engine</title>
<g id="a_edge1"><a xlink:title="11 calls">
<path fill="none" stroke="#60a5fa" stroke-width="1.6" d="M58,-112.66C58,-94.33 58,-65.24 58,-44.34"/>
<polygon fill="#60a5fa" stroke="#60a5fa" stroke-width="1.6" points="60.8,-44.22 58,-36.22 55.2,-44.22 60.8,-44.22"/>
</a>
</g>
<text text-anchor="middle" x="64.5" y="-72" font-family="DejaVu Sans" font-size="10.00" fill="#fcd34d">11</text>
</g>
<!-- com.deepin.ScreenSaver -->
<g id="node3" class="node">
<title>com.deepin.ScreenSaver</title>
<path fill="#0b1017" stroke="#6ee7b7" stroke-width="1.4" d="M1392.5,-149C1392.5,-149 1253.5,-149 1253.5,-149 1247.5,-149 1241.5,-143 1241.5,-137 1241.5,-137 1241.5,-125 1241.5,-125 1241.5,-119 1247.5,-113 1253.5,-113 1253.5,-113 1392.5,-113 1392.5,-113 1398.5,-113 1404.5,-119 1404.5,-125 1404.5,-125 1404.5,-137 1404.5,-137 1404.5,-143 1398.5,-149 1392.5,-149"/>
<text text-anchor="middle" x="1323" y="-128.2" font-family="DejaVu Sans" font-size="11.00" fill="#dcefd9">com.deepin.ScreenSaver</text>
</g>
<!-- com.deepin.dde.desktop -->
<g id="node4" class="node">
<title>com.deepin.dde.desktop</title>
<path fill="#0b1017" stroke="#6ee7b7" stroke-width="1.4" d="M2767,-149C2767,-149 2629,-149 2629,-149 2623,-149 2617,-143 2617,-137 2617,-137 2617,-125 2617,-125 2617,-119 2623,-113 2629,-113 2629,-113 2767,-113 2767,-113 2773,-113 2779,-119 2779,-125 2779,-125 2779,-137 2779,-137 2779,-143 2773,-149 2767,-149"/>
<text text-anchor="middle" x="2698" y="-128.2" font-family="DejaVu Sans" font-size="11.00" fill="#dcefd9">com.deepin.dde.desktop</text>
</g>
<!-- org.deepin.dde.Bluetooth1 -->
<g id="node14" class="node">
<title>org.deepin.dde.Bluetooth1</title>
<path fill="#0b1017" stroke="#6ee7b7" stroke-width="1.4" d="M2564.5,-36C2564.5,-36 2415.5,-36 2415.5,-36 2409.5,-36 2403.5,-30 2403.5,-24 2403.5,-24 2403.5,-12 2403.5,-12 2403.5,-6 2409.5,0 2415.5,0 2415.5,0 2564.5,0 2564.5,0 2570.5,0 2576.5,-6 2576.5,-12 2576.5,-12 2576.5,-24 2576.5,-24 2576.5,-30 2570.5,-36 2564.5,-36"/>
<text text-anchor="middle" x="2490" y="-15.2" font-family="DejaVu Sans" font-size="11.00" fill="#dcefd9">org.deepin.dde.Bluetooth1</text>
</g>
<!-- com.deepin.dde.desktop&#45;&gt;org.deepin.dde.Bluetooth1 -->
<g id="edge2" class="edge">
<title>com.deepin.dde.desktop&#45;&gt;org.deepin.dde.Bluetooth1</title>
<g id="a_edge2"><a xlink:title="3 calls">
<path fill="none" stroke="#60a5fa" stroke-width="1.6" d="M2665.96,-112.9C2629.16,-93.26 2568.79,-61.05 2529.22,-39.93"/>
<polygon fill="#60a5fa" stroke="#60a5fa" stroke-width="1.6" points="2530.46,-37.42 2522.08,-36.12 2527.82,-42.36 2530.46,-37.42"/>
</a>
</g>
<text text-anchor="middle" x="2604.5" y="-72" font-family="DejaVu Sans" font-size="10.00" fill="#fcd34d">3</text>
</g>
<!-- com.deepin.filemanager.filedialog -->
<g id="node5" class="node">
<title>com.deepin.filemanager.filedialog</title>
<path fill="#0b1017" stroke="#6ee7b7" stroke-width="1.4" d="M3015,-149C3015,-149 2827,-149 2827,-149 2821,-149 2815,-143 2815,-137 2815,-137 2815,-125 2815,-125 2815,-119 2821,-113 2827,-113 2827,-113 3015,-113 3015,-113 3021,-113 3027,-119 3027,-125 3027,-125 3027,-137 3027,-137 3027,-143 3021,-149 3015,-149"/>
<text text-anchor="middle" x="2921" y="-128.2" font-family="DejaVu Sans" font-size="11.00" fill="#dcefd9">com.deepin.filemanager.filedialog</text>
</g>
<!-- com.deepin.filemanager.filedialog&#45;&gt;org.deepin.dde.Bluetooth1 -->
<g id="edge3" class="edge">
<title>com.deepin.filemanager.filedialog&#45;&gt;org.deepin.dde.Bluetooth1</title>
<g id="a_edge3"><a xlink:title="3 calls">
<path fill="none" stroke="#60a5fa" stroke-width="1.6" d="M2854.6,-112.9C2776.02,-92.66 2645.57,-59.07 2563.87,-38.03"/>
<polygon fill="#60a5fa" stroke="#60a5fa" stroke-width="1.6" points="2564.57,-35.31 2556.12,-36.03 2563.17,-40.74 2564.57,-35.31"/>
</a>
</g>
<text text-anchor="middle" x="2722.5" y="-72" font-family="DejaVu Sans" font-size="10.00" fill="#fcd34d">3</text>
</g>
<!-- com.deepin.filemanager.filedialog_x11 -->
<g id="node6" class="node">
<title>com.deepin.filemanager.filedialog_x11</title>
<path fill="#0b1017" stroke="#6ee7b7" stroke-width="1.4" d="M2350.5,-149C2350.5,-149 2137.5,-149 2137.5,-149 2131.5,-149 2125.5,-143 2125.5,-137 2125.5,-137 2125.5,-125 2125.5,-125 2125.5,-119 2131.5,-113 2137.5,-113 2137.5,-113 2350.5,-113 2350.5,-113 2356.5,-113 2362.5,-119 2362.5,-125 2362.5,-125 2362.5,-137 2362.5,-137 2362.5,-143 2356.5,-149 2350.5,-149"/>
<text text-anchor="middle" x="2244" y="-128.2" font-family="DejaVu Sans" font-size="11.00" fill="#dcefd9">com.deepin.filemanager.filedialog_x11</text>
</g>
<!-- com.deepin.filemanager.filedialog_x11&#45;&gt;org.deepin.dde.Bluetooth1 -->
<g id="edge4" class="edge">
<title>com.deepin.filemanager.filedialog_x11&#45;&gt;org.deepin.dde.Bluetooth1</title>
<g id="a_edge4"><a xlink:title="3 calls">
<path fill="none" stroke="#60a5fa" stroke-width="1.6" d="M2281.9,-112.9C2325.69,-93.14 2397.71,-60.65 2444.49,-39.54"/>
<polygon fill="#60a5fa" stroke="#60a5fa" stroke-width="1.6" points="2445.92,-41.96 2452.06,-36.12 2443.61,-36.86 2445.92,-41.96"/>
</a>
</g>
<text text-anchor="middle" x="2378.5" y="-72" font-family="DejaVu Sans" font-size="10.00" fill="#fcd34d">3</text>
</g>
<!-- com.deepin.sync.Daemon -->
<g id="node7" class="node">
<title>com.deepin.sync.Daemon</title>
<path fill="#0b1017" stroke="#6ee7b7" stroke-width="1.4" d="M1597.5,-149C1597.5,-149 1452.5,-149 1452.5,-149 1446.5,-149 1440.5,-143 1440.5,-137 1440.5,-137 1440.5,-125 1440.5,-125 1440.5,-119 1446.5,-113 1452.5,-113 1452.5,-113 1597.5,-113 1597.5,-113 1603.5,-113 1609.5,-119 1609.5,-125 1609.5,-125 1609.5,-137 1609.5,-137 1609.5,-143 1603.5,-149 1597.5,-149"/>
<text text-anchor="middle" x="1525" y="-128.2" font-family="DejaVu Sans" font-size="11.00" fill="#dcefd9">com.deepin.sync.Daemon</text>
</g>
<!-- com.deepin.wm -->
<g id="node8" class="node">
<title>com.deepin.wm</title>
<path fill="#0b1017" stroke="#6ee7b7" stroke-width="1.4" d="M251,-149C251,-149 161,-149 161,-149 155,-149 149,-143 149,-137 149,-137 149,-125 149,-125 149,-119 155,-113 161,-113 161,-113 251,-113 251,-113 257,-113 263,-119 263,-125 263,-125 263,-137 263,-137 263,-143 257,-149 251,-149"/>
<text text-anchor="middle" x="206" y="-128.2" font-family="DejaVu Sans" font-size="11.00" fill="#dcefd9">com.deepin.wm</text>
</g>
<!-- org.kde.KWin -->
<g id="node31" class="node">
<title>org.kde.KWin</title>
<path fill="#0b1017" stroke="#6ee7b7" stroke-width="1.4" d="M243.5,-36C243.5,-36 168.5,-36 168.5,-36 162.5,-36 156.5,-30 156.5,-24 156.5,-24 156.5,-12 156.5,-12 156.5,-6 162.5,0 168.5,0 168.5,0 243.5,0 243.5,0 249.5,0 255.5,-6 255.5,-12 255.5,-12 255.5,-24 255.5,-24 255.5,-30 249.5,-36 243.5,-36"/>
<text text-anchor="middle" x="206" y="-15.2" font-family="DejaVu Sans" font-size="11.00" fill="#dcefd9">org.kde.KWin</text>
</g>
<!-- com.deepin.wm&#45;&gt;org.kde.KWin -->
<g id="edge5" class="edge">
<title>com.deepin.wm&#45;&gt;org.kde.KWin</title>
<g id="a_edge5"><a xlink:title="16 calls">
<path fill="none" stroke="#60a5fa" stroke-width="1.6" d="M206,-112.66C206,-94.33 206,-65.24 206,-44.34"/>
<polygon fill="#60a5fa" stroke="#60a5fa" stroke-width="1.6" points="208.8,-44.22 206,-36.22 203.2,-44.22 208.8,-44.22"/>
</a>
</g>
<text text-anchor="middle" x="212.5" y="-72" font-family="DejaVu Sans" font-size="10.00" fill="#fcd34d">16</text>
</g>
<!-- org.deepin.Filemanager.Daemon -->
<g id="node9" class="node">
<title>org.deepin.Filemanager.Daemon</title>
<path fill="#0b1017" stroke="#6ee7b7" stroke-width="1.4" d="M3480,-262C3480,-262 3300,-262 3300,-262 3294,-262 3288,-256 3288,-250 3288,-250 3288,-238 3288,-238 3288,-232 3294,-226 3300,-226 3300,-226 3480,-226 3480,-226 3486,-226 3492,-232 3492,-238 3492,-238 3492,-250 3492,-250 3492,-256 3486,-262 3480,-262"/>
<text text-anchor="middle" x="3390" y="-241.2" font-family="DejaVu Sans" font-size="11.00" fill="#dcefd9">org.deepin.Filemanager.Daemon</text>
</g>
<!-- org.deepin.Filemanager.TextIndex -->
<g id="node10" class="node">
<title>org.deepin.Filemanager.TextIndex</title>
<path fill="#0b1017" stroke="#6ee7b7" stroke-width="1.4" d="M3483.5,-149C3483.5,-149 3296.5,-149 3296.5,-149 3290.5,-149 3284.5,-143 3284.5,-137 3284.5,-137 3284.5,-125 3284.5,-125 3284.5,-119 3290.5,-113 3296.5,-113 3296.5,-113 3483.5,-113 3483.5,-113 3489.5,-113 3495.5,-119 3495.5,-125 3495.5,-125 3495.5,-137 3495.5,-137 3495.5,-143 3489.5,-149 3483.5,-149"/>
<text text-anchor="middle" x="3390" y="-128.2" font-family="DejaVu Sans" font-size="11.00" fill="#dcefd9">org.deepin.Filemanager.TextIndex</text>
</g>
<!-- org.deepin.Filemanager.Daemon&#45;&gt;org.deepin.Filemanager.TextIndex -->
<g id="edge6" class="edge">
<title>org.deepin.Filemanager.Daemon&#45;&gt;org.deepin.Filemanager.TextIndex</title>
<g id="a_edge6"><a xlink:title="12 calls">
<path fill="none" stroke="#60a5fa" stroke-width="1.6" d="M3390,-225.66C3390,-207.33 3390,-178.24 3390,-157.34"/>
<polygon fill="#60a5fa" stroke="#60a5fa" stroke-width="1.6" points="3392.8,-157.22 3390,-149.22 3387.2,-157.22 3392.8,-157.22"/>
</a>
</g>
<text text-anchor="middle" x="3396.5" y="-185" font-family="DejaVu Sans" font-size="10.00" fill="#fcd34d">12</text>
</g>
<!-- org.deepin.dde.Appearance1 -->
<g id="node11" class="node">
<title>org.deepin.dde.Appearance1</title>
<path fill="#0b1017" stroke="#6ee7b7" stroke-width="1.4" d="M1605.5,-262C1605.5,-262 1444.5,-262 1444.5,-262 1438.5,-262 1432.5,-256 1432.5,-250 1432.5,-250 1432.5,-238 1432.5,-238 1432.5,-232 1438.5,-226 1444.5,-226 1444.5,-226 1605.5,-226 1605.5,-226 1611.5,-226 1617.5,-232 1617.5,-238 1617.5,-238 1617.5,-250 1617.5,-250 1617.5,-256 1611.5,-262 1605.5,-262"/>
<text text-anchor="middle" x="1525" y="-241.2" font-family="DejaVu Sans" font-size="11.00" fill="#dcefd9">org.deepin.dde.Appearance1</text>
</g>
<!-- org.deepin.dde.Appearance1&#45;&gt;com.deepin.sync.Daemon -->
<g id="edge7" class="edge">
<title>org.deepin.dde.Appearance1&#45;&gt;com.deepin.sync.Daemon</title>
<g id="a_edge7"><a xlink:title="12 calls">
<path fill="none" stroke="#60a5fa" stroke-width="1.6" d="M1525,-225.66C1525,-207.33 1525,-178.24 1525,-157.34"/>
<polygon fill="#60a5fa" stroke="#60a5fa" stroke-width="1.6" points="1527.8,-157.22 1525,-149.22 1522.2,-157.22 1527.8,-157.22"/>
</a>
</g>
<text text-anchor="middle" x="1531.5" y="-185" font-family="DejaVu Sans" font-size="10.00" fill="#fcd34d">12</text>
</g>
<!-- org.deepin.dde.Audio1 -->
<g id="node12" class="node">
<title>org.deepin.dde.Audio1</title>
<path fill="#0b1017" stroke="#6ee7b7" stroke-width="1.4" d="M945,-262C945,-262 819,-262 819,-262 813,-262 807,-256 807,-250 807,-250 807,-238 807,-238 807,-232 813,-226 819,-226 819,-226 945,-226 945,-226 951,-226 957,-232 957,-238 957,-238 957,-250 957,-250 957,-256 951,-262 945,-262"/>
<text text-anchor="middle" x="882" y="-241.2" font-family="DejaVu Sans" font-size="11.00" fill="#dcefd9">org.deepin.dde.Audio1</text>
</g>
<!-- org.deepin.dde.Audio1&#45;&gt;com.deepin.ScreenSaver -->
<g id="edge8" class="edge">
<title>org.deepin.dde.Audio1&#45;&gt;com.deepin.ScreenSaver</title>
<g id="a_edge8"><a xlink:title="4 calls">
<path fill="none" stroke="#60a5fa" stroke-width="1.6" d="M949.94,-225.9C1030.34,-205.66 1163.82,-172.07 1247.41,-151.03"/>
<polygon fill="#60a5fa" stroke="#60a5fa" stroke-width="1.6" points="1248.27,-153.7 1255.35,-149.03 1246.9,-148.27 1248.27,-153.7"/>
</a>
</g>
<text text-anchor="middle" x="1119.5" y="-185" font-family="DejaVu Sans" font-size="10.00" fill="#fcd34d">4</text>
</g>
<!-- org.deepin.dde.Audio1&#45;&gt;com.deepin.sync.Daemon -->
<g id="edge9" class="edge">
<title>org.deepin.dde.Audio1&#45;&gt;com.deepin.sync.Daemon</title>
<g id="a_edge9"><a xlink:title="36 calls">
<path fill="none" stroke="#60a5fa" stroke-width="1.6" d="M957.02,-230.05C1075.13,-209.66 1304.17,-170.12 1432.37,-147.99"/>
<polygon fill="#60a5fa" stroke="#60a5fa" stroke-width="1.6" points="1432.88,-150.74 1440.29,-146.62 1431.93,-145.23 1432.88,-150.74"/>
</a>
</g>
<text text-anchor="middle" x="1229.5" y="-185" font-family="DejaVu Sans" font-size="10.00" fill="#fcd34d">36</text>
</g>
<!-- org.deepin.dde.Audio1&#45;&gt;com.deepin.wm -->
<g id="edge10" class="edge">
<title>org.deepin.dde.Audio1&#45;&gt;com.deepin.wm</title>
<g id="a_edge10"><a xlink:title="8 calls">
<path fill="none" stroke="#60a5fa" stroke-width="1.6" d="M806.76,-232.9C692.67,-217.21 469.27,-185.02 281,-149 277.75,-148.38 274.44,-147.72 271.09,-147.03"/>
<polygon fill="#60a5fa" stroke="#60a5fa" stroke-width="1.6" points="271.65,-144.29 263.24,-145.4 270.5,-149.77 271.65,-144.29"/>
</a>
</g>
<text text-anchor="middle" x="531.5" y="-185" font-family="DejaVu Sans" font-size="10.00" fill="#fcd34d">8</text>
</g>
<!-- org.deepin.dde.Audio1&#45;&gt;org.deepin.dde.Audio1 -->
<g id="edge11" class="edge">
<title>org.deepin.dde.Audio1&#45;&gt;org.deepin.dde.Audio1</title>
<g id="a_edge11"><a xlink:title="2 calls">
<path fill="none" stroke="#60a5fa" stroke-width="1.6" d="M957.23,-254.42C977.54,-253.87 993,-250.4 993,-244 993,-238.5 981.58,-235.16 965.48,-233.98"/>
<polygon fill="#60a5fa" stroke="#60a5fa" stroke-width="1.6" points="965.35,-231.17 957.23,-233.58 965.08,-236.77 965.35,-231.17"/>
</a>
</g>
<text text-anchor="middle" x="996.5" y="-241.5" font-family="DejaVu Sans" font-size="10.00" fill="#fcd34d">2</text>
</g>
<!-- org.deepin.dde.BlackScreen1 -->
<g id="node13" class="node">
<title>org.deepin.dde.BlackScreen1</title>
<path fill="#0b1017" stroke="#6ee7b7" stroke-width="1.4" d="M473,-149C473,-149 311,-149 311,-149 305,-149 299,-143 299,-137 299,-137 299,-125 299,-125 299,-119 305,-113 311,-113 311,-113 473,-113 473,-113 479,-113 485,-119 485,-125 485,-125 485,-137 485,-137 485,-143 479,-149 473,-149"/>
<text text-anchor="middle" x="392" y="-128.2" font-family="DejaVu Sans" font-size="11.00" fill="#dcefd9">org.deepin.dde.BlackScreen1</text>
</g>
<!-- org.deepin.dde.Audio1&#45;&gt;org.deepin.dde.BlackScreen1 -->
<g id="edge12" class="edge">
<title>org.deepin.dde.Audio1&#45;&gt;org.deepin.dde.BlackScreen1</title>
<g id="a_edge12"><a xlink:title="5 calls">
<path fill="none" stroke="#60a5fa" stroke-width="1.6" d="M806.78,-225.96C717.24,-205.68 568.17,-171.91 475.24,-150.86"/>
<polygon fill="#60a5fa" stroke="#60a5fa" stroke-width="1.6" points="475.68,-148.09 467.26,-149.05 474.44,-153.55 475.68,-148.09"/>
</a>
</g>
<text text-anchor="middle" x="655.5" y="-185" font-family="DejaVu Sans" font-size="10.00" fill="#fcd34d">5</text>
</g>
<!-- org.deepin.dde.Display1 -->
<g id="node15" class="node">
<title>org.deepin.dde.Display1</title>
<path fill="#0b1017" stroke="#6ee7b7" stroke-width="1.4" d="M669,-149C669,-149 533,-149 533,-149 527,-149 521,-143 521,-137 521,-137 521,-125 521,-125 521,-119 527,-113 533,-113 533,-113 669,-113 669,-113 675,-113 681,-119 681,-125 681,-125 681,-137 681,-137 681,-143 675,-149 669,-149"/>
<text text-anchor="middle" x="601" y="-128.2" font-family="DejaVu Sans" font-size="11.00" fill="#dcefd9">org.deepin.dde.Display1</text>
</g>
<!-- org.deepin.dde.Audio1&#45;&gt;org.deepin.dde.Display1 -->
<g id="edge13" class="edge">
<title>org.deepin.dde.Audio1&#45;&gt;org.deepin.dde.Display1</title>
<g id="a_edge13"><a xlink:title="1 calls">
<path fill="none" stroke="#60a5fa" stroke-width="1.6" d="M816.38,-226C786,-217.37 749.68,-205.96 718,-193 690.07,-181.57 659.9,-165.75 637.19,-153.09"/>
<polygon fill="#60a5fa" stroke="#60a5fa" stroke-width="1.6" points="638.44,-150.58 630.1,-149.1 635.7,-155.46 638.44,-150.58"/>
</a>
</g>
<text text-anchor="middle" x="721.5" y="-185" font-family="DejaVu Sans" font-size="10.00" fill="#fcd34d">1</text>
</g>
<!-- org.deepin.dde.LockFront1 -->
<g id="node18" class="node">
<title>org.deepin.dde.LockFront1</title>
<path fill="#0b1017" stroke="#6ee7b7" stroke-width="1.4" d="M956,-149C956,-149 808,-149 808,-149 802,-149 796,-143 796,-137 796,-137 796,-125 796,-125 796,-119 802,-113 808,-113 808,-113 956,-113 956,-113 962,-113 968,-119 968,-125 968,-125 968,-137 968,-137 968,-143 962,-149 956,-149"/>
<text text-anchor="middle" x="882" y="-128.2" font-family="DejaVu Sans" font-size="11.00" fill="#dcefd9">org.deepin.dde.LockFront1</text>
</g>
<!-- org.deepin.dde.Audio1&#45;&gt;org.deepin.dde.LockFront1 -->
<g id="edge14" class="edge">
<title>org.deepin.dde.Audio1&#45;&gt;org.deepin.dde.LockFront1</title>
<g id="a_edge14"><a xlink:title="1 calls">
<path fill="none" stroke="#60a5fa" stroke-width="1.6" d="M882,-225.66C882,-207.33 882,-178.24 882,-157.34"/>
<polygon fill="#60a5fa" stroke="#60a5fa" stroke-width="1.6" points="884.8,-157.22 882,-149.22 879.2,-157.22 884.8,-157.22"/>
</a>
</g>
<text text-anchor="middle" x="885.5" y="-185" font-family="DejaVu Sans" font-size="10.00" fill="#fcd34d">1</text>
</g>
<!-- org.deepin.dde.SessionManager1 -->
<g id="node20" class="node">
<title>org.deepin.dde.SessionManager1</title>
<path fill="#0b1017" stroke="#6ee7b7" stroke-width="1.4" d="M759,-36C759,-36 573,-36 573,-36 567,-36 561,-30 561,-24 561,-24 561,-12 561,-12 561,-6 567,0 573,0 573,0 759,0 759,0 765,0 771,-6 771,-12 771,-12 771,-24 771,-24 771,-30 765,-36 759,-36"/>
<text text-anchor="middle" x="666" y="-15.2" font-family="DejaVu Sans" font-size="11.00" fill="#dcefd9">org.deepin.dde.SessionManager1</text>
</g>
<!-- org.deepin.dde.Audio1&#45;&gt;org.deepin.dde.SessionManager1 -->
<g id="edge15" class="edge">
<title>org.deepin.dde.Audio1&#45;&gt;org.deepin.dde.SessionManager1</title>
<g id="a_edge15"><a xlink:title="7 calls">
<path fill="none" stroke="#60a5fa" stroke-width="1.6" d="M859.23,-225.79C835.99,-207.76 799.41,-178.08 771,-149 737.31,-114.52 703.12,-70.04 683.27,-43.06"/>
<polygon fill="#60a5fa" stroke="#60a5fa" stroke-width="1.6" points="685.29,-41.07 678.31,-36.26 680.77,-44.38 685.29,-41.07"/>
</a>
</g>
<text text-anchor="middle" x="774.5" y="-128.5" font-family="DejaVu Sans" font-size="10.00" fill="#fcd34d">7</text>
</g>
<!-- org.deepin.dde.ShutdownFront1 -->
<g id="node21" class="node">
<title>org.deepin.dde.ShutdownFront1</title>
<path fill="#0b1017" stroke="#6ee7b7" stroke-width="1.4" d="M1193.5,-149C1193.5,-149 1016.5,-149 1016.5,-149 1010.5,-149 1004.5,-143 1004.5,-137 1004.5,-137 1004.5,-125 1004.5,-125 1004.5,-119 1010.5,-113 1016.5,-113 1016.5,-113 1193.5,-113 1193.5,-113 1199.5,-113 1205.5,-119 1205.5,-125 1205.5,-125 1205.5,-137 1205.5,-137 1205.5,-143 1199.5,-149 1193.5,-149"/>
<text text-anchor="middle" x="1105" y="-128.2" font-family="DejaVu Sans" font-size="11.00" fill="#dcefd9">org.deepin.dde.ShutdownFront1</text>
</g>
<!-- org.deepin.dde.Audio1&#45;&gt;org.deepin.dde.ShutdownFront1 -->
<g id="edge16" class="edge">
<title>org.deepin.dde.Audio1&#45;&gt;org.deepin.dde.ShutdownFront1</title>
<g id="a_edge16"><a xlink:title="1 calls">
<path fill="none" stroke="#60a5fa" stroke-width="1.6" d="M916.36,-225.9C955.89,-206.22 1020.8,-173.91 1063.22,-152.8"/>
<polygon fill="#60a5fa" stroke="#60a5fa" stroke-width="1.6" points="1064.69,-155.19 1070.61,-149.12 1062.2,-150.18 1064.69,-155.19"/>
</a>
</g>
<text text-anchor="middle" x="1004.5" y="-185" font-family="DejaVu Sans" font-size="10.00" fill="#fcd34d">1</text>
</g>
<!-- org.desktopspec.ApplicationManager1 -->
<g id="node25" class="node">
<title>org.desktopspec.ApplicationManager1</title>
<path fill="#0b1017" stroke="#6ee7b7" stroke-width="1.4" d="M1870.5,-149C1870.5,-149 1657.5,-149 1657.5,-149 1651.5,-149 1645.5,-143 1645.5,-137 1645.5,-137 1645.5,-125 1645.5,-125 1645.5,-119 1651.5,-113 1657.5,-113 1657.5,-113 1870.5,-113 1870.5,-113 1876.5,-113 1882.5,-119 1882.5,-125 1882.5,-125 1882.5,-137 1882.5,-137 1882.5,-143 1876.5,-149 1870.5,-149"/>
<text text-anchor="middle" x="1764" y="-128.2" font-family="DejaVu Sans" font-size="11.00" fill="#dcefd9">org.desktopspec.ApplicationManager1</text>
</g>
<!-- org.deepin.dde.Audio1&#45;&gt;org.desktopspec.ApplicationManager1 -->
<g id="edge17" class="edge">
<title>org.deepin.dde.Audio1&#45;&gt;org.desktopspec.ApplicationManager1</title>
<g id="a_edge17"><a xlink:title="3 calls">
<path fill="none" stroke="#60a5fa" stroke-width="1.6" d="M957.2,-233.54C1108.36,-214.51 1450.49,-171.46 1636.98,-147.99"/>
<polygon fill="#60a5fa" stroke="#60a5fa" stroke-width="1.6" points="1637.61,-150.73 1645.2,-146.95 1636.91,-145.17 1637.61,-150.73"/>
</a>
</g>
<text text-anchor="middle" x="1353.5" y="-185" font-family="DejaVu Sans" font-size="10.00" fill="#fcd34d">3</text>
</g>
<!-- org.deepin.dde.Dock1 -->
<g id="node16" class="node">
<title>org.deepin.dde.Dock1</title>
<path fill="#0b1017" stroke="#6ee7b7" stroke-width="1.4" d="M2521.5,-262C2521.5,-262 2398.5,-262 2398.5,-262 2392.5,-262 2386.5,-256 2386.5,-250 2386.5,-250 2386.5,-238 2386.5,-238 2386.5,-232 2392.5,-226 2398.5,-226 2398.5,-226 2521.5,-226 2521.5,-226 2527.5,-226 2533.5,-232 2533.5,-238 2533.5,-238 2533.5,-250 2533.5,-250 2533.5,-256 2527.5,-262 2521.5,-262"/>
<text text-anchor="middle" x="2460" y="-241.2" font-family="DejaVu Sans" font-size="11.00" fill="#dcefd9">org.deepin.dde.Dock1</text>
</g>
<!-- org.deepin.dde.SoundEffect1 -->
<g id="node22" class="node">
<title>org.deepin.dde.SoundEffect1</title>
<path fill="#0b1017" stroke="#6ee7b7" stroke-width="1.4" d="M3236.5,-149C3236.5,-149 3075.5,-149 3075.5,-149 3069.5,-149 3063.5,-143 3063.5,-137 3063.5,-137 3063.5,-125 3063.5,-125 3063.5,-119 3069.5,-113 3075.5,-113 3075.5,-113 3236.5,-113 3236.5,-113 3242.5,-113 3248.5,-119 3248.5,-125 3248.5,-125 3248.5,-137 3248.5,-137 3248.5,-143 3242.5,-149 3236.5,-149"/>
<text text-anchor="middle" x="3156" y="-128.2" font-family="DejaVu Sans" font-size="11.00" fill="#dcefd9">org.deepin.dde.SoundEffect1</text>
</g>
<!-- org.deepin.dde.Dock1&#45;&gt;org.deepin.dde.SoundEffect1 -->
<g id="edge18" class="edge">
<title>org.deepin.dde.Dock1&#45;&gt;org.deepin.dde.SoundEffect1</title>
<g id="a_edge18"><a xlink:title="1 calls">
<path fill="none" stroke="#60a5fa" stroke-width="1.6" d="M2533.83,-231.23C2659.24,-211.23 2914.03,-170.59 3055.55,-148.02"/>
<polygon fill="#60a5fa" stroke="#60a5fa" stroke-width="1.6" points="3056,-150.78 3063.45,-146.76 3055.11,-145.25 3056,-150.78"/>
</a>
</g>
<text text-anchor="middle" x="2832.5" y="-185" font-family="DejaVu Sans" font-size="10.00" fill="#fcd34d">1</text>
</g>
<!-- org.deepin.dde.Dock1&#45;&gt;org.desktopspec.ApplicationManager1 -->
<g id="edge19" class="edge">
<title>org.deepin.dde.Dock1&#45;&gt;org.desktopspec.ApplicationManager1</title>
<g id="a_edge19"><a xlink:title="2 calls">
<path fill="none" stroke="#60a5fa" stroke-width="1.6" d="M2386.17,-231.23C2264.88,-211.88 2022.58,-173.24 1878.76,-150.3"/>
<polygon fill="#60a5fa" stroke="#60a5fa" stroke-width="1.6" points="1879.05,-147.51 1870.71,-149.02 1878.17,-153.04 1879.05,-147.51"/>
</a>
</g>
<text text-anchor="middle" x="2136.5" y="-185" font-family="DejaVu Sans" font-size="10.00" fill="#fcd34d">2</text>
</g>
<!-- org.deepin.dde.Keyboard1 -->
<g id="node17" class="node">
<title>org.deepin.dde.Keyboard1</title>
<path fill="#0b1017" stroke="#6ee7b7" stroke-width="1.4" d="M2077.5,-149C2077.5,-149 1930.5,-149 1930.5,-149 1924.5,-149 1918.5,-143 1918.5,-137 1918.5,-137 1918.5,-125 1918.5,-125 1918.5,-119 1924.5,-113 1930.5,-113 1930.5,-113 2077.5,-113 2077.5,-113 2083.5,-113 2089.5,-119 2089.5,-125 2089.5,-125 2089.5,-137 2089.5,-137 2089.5,-143 2083.5,-149 2077.5,-149"/>
<text text-anchor="middle" x="2004" y="-128.2" font-family="DejaVu Sans" font-size="11.00" fill="#dcefd9">org.deepin.dde.Keyboard1</text>
</g>
<!-- org.deepin.dde.Keyboard1&#45;&gt;org.deepin.dde.Bluetooth1 -->
<g id="edge20" class="edge">
<title>org.deepin.dde.Keyboard1&#45;&gt;org.deepin.dde.Bluetooth1</title>
<g id="a_edge20"><a xlink:title="2 calls">
<path fill="none" stroke="#60a5fa" stroke-width="1.6" d="M2078.61,-112.96C2167.42,-92.68 2315.27,-58.91 2407.44,-37.86"/>
<polygon fill="#60a5fa" stroke="#60a5fa" stroke-width="1.6" points="2408.18,-40.56 2415.35,-36.05 2406.93,-35.1 2408.18,-40.56"/>
</a>
</g>
<text text-anchor="middle" x="2265.5" y="-72" font-family="DejaVu Sans" font-size="10.00" fill="#fcd34d">2</text>
</g>
<!-- org.deepin.dde.Power1 -->
<g id="node19" class="node">
<title>org.deepin.dde.Power1</title>
<path fill="#0b1017" stroke="#6ee7b7" stroke-width="1.4" d="M1642.5,-36C1642.5,-36 1513.5,-36 1513.5,-36 1507.5,-36 1501.5,-30 1501.5,-24 1501.5,-24 1501.5,-12 1501.5,-12 1501.5,-6 1507.5,0 1513.5,0 1513.5,0 1642.5,0 1642.5,0 1648.5,0 1654.5,-6 1654.5,-12 1654.5,-12 1654.5,-24 1654.5,-24 1654.5,-30 1648.5,-36 1642.5,-36"/>
<text text-anchor="middle" x="1578" y="-15.2" font-family="DejaVu Sans" font-size="11.00" fill="#dcefd9">org.deepin.dde.Power1</text>
</g>
<!-- org.deepin.dde.Keyboard1&#45;&gt;org.deepin.dde.Power1 -->
<g id="edge21" class="edge">
<title>org.deepin.dde.Keyboard1&#45;&gt;org.deepin.dde.Power1</title>
<g id="a_edge21"><a xlink:title="21 calls">
<path fill="none" stroke="#60a5fa" stroke-width="1.6" d="M1938.37,-112.9C1860.86,-92.7 1732.29,-59.2 1651.5,-38.15"/>
<polygon fill="#60a5fa" stroke="#60a5fa" stroke-width="1.6" points="1651.8,-35.34 1643.35,-36.03 1650.39,-40.76 1651.8,-35.34"/>
</a>
</g>
<text text-anchor="middle" x="1810.5" y="-72" font-family="DejaVu Sans" font-size="10.00" fill="#fcd34d">21</text>
</g>
<!-- org.kde.StatusNotifierItem&#45;303938&#45;1 -->
<g id="node32" class="node">
<title>org.kde.StatusNotifierItem&#45;303938&#45;1</title>
<path fill="#0b1017" stroke="#6ee7b7" stroke-width="1.4" d="M2105.5,-36C2105.5,-36 1902.5,-36 1902.5,-36 1896.5,-36 1890.5,-30 1890.5,-24 1890.5,-24 1890.5,-12 1890.5,-12 1890.5,-6 1896.5,0 1902.5,0 1902.5,0 2105.5,0 2105.5,0 2111.5,0 2117.5,-6 2117.5,-12 2117.5,-12 2117.5,-24 2117.5,-24 2117.5,-30 2111.5,-36 2105.5,-36"/>
<text text-anchor="middle" x="2004" y="-15.2" font-family="DejaVu Sans" font-size="11.00" fill="#dcefd9">org.kde.StatusNotifierItem&#45;303938&#45;1</text>
</g>
<!-- org.deepin.dde.Keyboard1&#45;&gt;org.kde.StatusNotifierItem&#45;303938&#45;1 -->
<g id="edge22" class="edge">
<title>org.deepin.dde.Keyboard1&#45;&gt;org.kde.StatusNotifierItem&#45;303938&#45;1</title>
<g id="a_edge22"><a xlink:title="378 calls">
<path fill="none" stroke="#60a5fa" stroke-width="1.6" d="M2004,-112.66C2004,-94.33 2004,-65.24 2004,-44.34"/>
<polygon fill="#60a5fa" stroke="#60a5fa" stroke-width="1.6" points="2006.8,-44.22 2004,-36.22 2001.2,-44.22 2006.8,-44.22"/>
</a>
</g>
<text text-anchor="middle" x="2013.5" y="-72" font-family="DejaVu Sans" font-size="10.00" fill="#fcd34d">378</text>
</g>
<!-- org.deepin.dde.LockFront1&#45;&gt;org.deepin.dde.Power1 -->
<g id="edge23" class="edge">
<title>org.deepin.dde.LockFront1&#45;&gt;org.deepin.dde.Power1</title>
<g id="a_edge23"><a xlink:title="4 calls">
<path fill="none" stroke="#60a5fa" stroke-width="1.6" d="M968.26,-115.87C974.26,-114.9 980.22,-113.93 986,-113 1166.6,-83.9 1378.3,-50.44 1493.24,-32.33"/>
<polygon fill="#60a5fa" stroke="#60a5fa" stroke-width="1.6" points="1493.88,-35.07 1501.35,-31.06 1493.01,-29.54 1493.88,-35.07"/>
</a>
</g>
<text text-anchor="middle" x="1249.5" y="-72" font-family="DejaVu Sans" font-size="10.00" fill="#fcd34d">4</text>
</g>
<!-- org.deepin.dde.LockFront1&#45;&gt;org.deepin.dde.SessionManager1 -->
<g id="edge24" class="edge">
<title>org.deepin.dde.LockFront1&#45;&gt;org.deepin.dde.SessionManager1</title>
<g id="a_edge24"><a xlink:title="12 calls">
<path fill="none" stroke="#60a5fa" stroke-width="1.6" d="M855.97,-112.96C835.89,-100.14 807.21,-82.54 781,-69 760.33,-58.33 736.88,-47.85 716.57,-39.27"/>
<polygon fill="#60a5fa" stroke="#60a5fa" stroke-width="1.6" points="717.42,-36.59 708.96,-36.08 715.25,-41.75 717.42,-36.59"/>
</a>
</g>
<text text-anchor="middle" x="807.5" y="-72" font-family="DejaVu Sans" font-size="10.00" fill="#fcd34d">12</text>
</g>
<!-- org.deepin.dde.Zone1 -->
<g id="node23" class="node">
<title>org.deepin.dde.Zone1</title>
<path fill="#0b1017" stroke="#6ee7b7" stroke-width="1.4" d="M1271.5,-36C1271.5,-36 1148.5,-36 1148.5,-36 1142.5,-36 1136.5,-30 1136.5,-24 1136.5,-24 1136.5,-12 1136.5,-12 1136.5,-6 1142.5,0 1148.5,0 1148.5,0 1271.5,0 1271.5,0 1277.5,0 1283.5,-6 1283.5,-12 1283.5,-12 1283.5,-24 1283.5,-24 1283.5,-30 1277.5,-36 1271.5,-36"/>
<text text-anchor="middle" x="1210" y="-15.2" font-family="DejaVu Sans" font-size="11.00" fill="#dcefd9">org.deepin.dde.Zone1</text>
</g>
<!-- org.deepin.dde.LockFront1&#45;&gt;org.deepin.dde.Zone1 -->
<g id="edge25" class="edge">
<title>org.deepin.dde.LockFront1&#45;&gt;org.deepin.dde.Zone1</title>
<g id="a_edge25"><a xlink:title="8 calls">
<path fill="none" stroke="#60a5fa" stroke-width="1.6" d="M932.53,-112.9C991.73,-92.87 1089.61,-59.74 1151.89,-38.67"/>
<polygon fill="#60a5fa" stroke="#60a5fa" stroke-width="1.6" points="1153,-41.25 1159.68,-36.03 1151.21,-35.94 1153,-41.25"/>
</a>
</g>
<text text-anchor="middle" x="1059.5" y="-72" font-family="DejaVu Sans" font-size="10.00" fill="#fcd34d">8</text>
</g>
<!-- org.mpris.MediaPlayer2.chromium.instance6556 -->
<g id="node33" class="node">
<title>org.mpris.MediaPlayer2.chromium.instance6556</title>
<path fill="#0b1017" stroke="#6ee7b7" stroke-width="1.4" d="M1088.5,-36C1088.5,-36 819.5,-36 819.5,-36 813.5,-36 807.5,-30 807.5,-24 807.5,-24 807.5,-12 807.5,-12 807.5,-6 813.5,0 819.5,0 819.5,0 1088.5,0 1088.5,0 1094.5,0 1100.5,-6 1100.5,-12 1100.5,-12 1100.5,-24 1100.5,-24 1100.5,-30 1094.5,-36 1088.5,-36"/>
<text text-anchor="middle" x="954" y="-15.2" font-family="DejaVu Sans" font-size="11.00" fill="#dcefd9">org.mpris.MediaPlayer2.chromium.instance6556</text>
</g>
<!-- org.deepin.dde.LockFront1&#45;&gt;org.mpris.MediaPlayer2.chromium.instance6556 -->
<g id="edge26" class="edge">
<title>org.deepin.dde.LockFront1&#45;&gt;org.mpris.MediaPlayer2.chromium.instance6556</title>
<g id="a_edge26"><a xlink:title="3 calls">
<path fill="none" stroke="#60a5fa" stroke-width="1.6" d="M893.25,-112.66C905.4,-93.92 924.85,-63.94 938.46,-42.96"/>
<polygon fill="#60a5fa" stroke="#60a5fa" stroke-width="1.6" points="940.82,-44.46 942.83,-36.22 936.13,-41.41 940.82,-44.46"/>
</a>
</g>
<text text-anchor="middle" x="924.5" y="-72" font-family="DejaVu Sans" font-size="10.00" fill="#fcd34d">3</text>
</g>
<!-- org.deepin.filemanager.drag -->
<g id="node24" class="node">
<title>org.deepin.filemanager.drag</title>
<path fill="#0b1017" stroke="#6ee7b7" stroke-width="1.4" d="M2569,-149C2569,-149 2411,-149 2411,-149 2405,-149 2399,-143 2399,-137 2399,-137 2399,-125 2399,-125 2399,-119 2405,-113 2411,-113 2411,-113 2569,-113 2569,-113 2575,-113 2581,-119 2581,-125 2581,-125 2581,-137 2581,-137 2581,-143 2575,-149 2569,-149"/>
<text text-anchor="middle" x="2490" y="-128.2" font-family="DejaVu Sans" font-size="11.00" fill="#dcefd9">org.deepin.filemanager.drag</text>
</g>
<!-- org.deepin.filemanager.drag&#45;&gt;org.deepin.dde.Bluetooth1 -->
<g id="edge27" class="edge">
<title>org.deepin.filemanager.drag&#45;&gt;org.deepin.dde.Bluetooth1</title>
<g id="a_edge27"><a xlink:title="3 calls">
<path fill="none" stroke="#60a5fa" stroke-width="1.6" d="M2490,-112.66C2490,-94.33 2490,-65.24 2490,-44.34"/>
<polygon fill="#60a5fa" stroke="#60a5fa" stroke-width="1.6" points="2492.8,-44.22 2490,-36.22 2487.2,-44.22 2492.8,-44.22"/>
</a>
</g>
<text text-anchor="middle" x="2493.5" y="-72" font-family="DejaVu Sans" font-size="10.00" fill="#fcd34d">3</text>
</g>
<!-- org.fcitx.Fcitx5 -->
<g id="node26" class="node">
<title>org.fcitx.Fcitx5</title>
<path fill="#0b1017" stroke="#6ee7b7" stroke-width="1.4" d="M100.5,-262C100.5,-262 15.5,-262 15.5,-262 9.5,-262 3.5,-256 3.5,-250 3.5,-250 3.5,-238 3.5,-238 3.5,-232 9.5,-226 15.5,-226 15.5,-226 100.5,-226 100.5,-226 106.5,-226 112.5,-232 112.5,-238 112.5,-238 112.5,-250 112.5,-250 112.5,-256 106.5,-262 100.5,-262"/>
<text text-anchor="middle" x="58" y="-241.2" font-family="DejaVu Sans" font-size="11.00" fill="#dcefd9">org.fcitx.Fcitx5</text>
</g>
<!-- org.fcitx.Fcitx5&#45;&gt;com.cpis.panel -->
<g id="edge28" class="edge">
<title>org.fcitx.Fcitx5&#45;&gt;com.cpis.panel</title>
<g id="a_edge28"><a xlink:title="70 calls">
<path fill="none" stroke="#60a5fa" stroke-width="1.6" d="M58,-225.66C58,-207.33 58,-178.24 58,-157.34"/>
<polygon fill="#60a5fa" stroke="#60a5fa" stroke-width="1.6" points="60.8,-157.22 58,-149.22 55.2,-157.22 60.8,-157.22"/>
</a>
</g>
<text text-anchor="middle" x="64.5" y="-185" font-family="DejaVu Sans" font-size="10.00" fill="#fcd34d">70</text>
</g>
<!-- org.freedesktop.ReserveDevice1.Audio0 -->
<g id="node27" class="node">
<title>org.freedesktop.ReserveDevice1.Audio0</title>
<path fill="#0b1017" stroke="#6ee7b7" stroke-width="1.4" d="M3778,-262C3778,-262 3554,-262 3554,-262 3548,-262 3542,-256 3542,-250 3542,-250 3542,-238 3542,-238 3542,-232 3548,-226 3554,-226 3554,-226 3778,-226 3778,-226 3784,-226 3790,-232 3790,-238 3790,-238 3790,-250 3790,-250 3790,-256 3784,-262 3778,-262"/>
<text text-anchor="middle" x="3666" y="-241.2" font-family="DejaVu Sans" font-size="11.00" fill="#dcefd9">org.freedesktop.ReserveDevice1.Audio0</text>
</g>
<!-- org.freedesktop.impl.portal.PermissionStore -->
<g id="node28" class="node">
<title>org.freedesktop.impl.portal.PermissionStore</title>
<path fill="#0b1017" stroke="#6ee7b7" stroke-width="1.4" d="M3788.5,-149C3788.5,-149 3543.5,-149 3543.5,-149 3537.5,-149 3531.5,-143 3531.5,-137 3531.5,-137 3531.5,-125 3531.5,-125 3531.5,-119 3537.5,-113 3543.5,-113 3543.5,-113 3788.5,-113 3788.5,-113 3794.5,-113 3800.5,-119 3800.5,-125 3800.5,-125 3800.5,-137 3800.5,-137 3800.5,-143 3794.5,-149 3788.5,-149"/>
<text text-anchor="middle" x="3666" y="-128.2" font-family="DejaVu Sans" font-size="11.00" fill="#dcefd9">org.freedesktop.impl.portal.PermissionStore</text>
</g>
<!-- org.freedesktop.ReserveDevice1.Audio0&#45;&gt;org.freedesktop.impl.portal.PermissionStore -->
<g id="edge29" class="edge">
<title>org.freedesktop.ReserveDevice1.Audio0&#45;&gt;org.freedesktop.impl.portal.PermissionStore</title>
<g id="a_edge29"><a xlink:title="2 calls">
<path fill="none" stroke="#60a5fa" stroke-width="1.6" d="M3666,-225.66C3666,-207.33 3666,-178.24 3666,-157.34"/>
<polygon fill="#60a5fa" stroke="#60a5fa" stroke-width="1.6" points="3668.8,-157.22 3666,-149.22 3663.2,-157.22 3668.8,-157.22"/>
</a>
</g>
<text text-anchor="middle" x="3669.5" y="-185" font-family="DejaVu Sans" font-size="10.00" fill="#fcd34d">2</text>
</g>
<!-- org.gtk.vfs.Daemon -->
<g id="node29" class="node">
<title>org.gtk.vfs.Daemon</title>
<path fill="#0b1017" stroke="#6ee7b7" stroke-width="1.4" d="M3980.5,-149C3980.5,-149 3869.5,-149 3869.5,-149 3863.5,-149 3857.5,-143 3857.5,-137 3857.5,-137 3857.5,-125 3857.5,-125 3857.5,-119 3863.5,-113 3869.5,-113 3869.5,-113 3980.5,-113 3980.5,-113 3986.5,-113 3992.5,-119 3992.5,-125 3992.5,-125 3992.5,-137 3992.5,-137 3992.5,-143 3986.5,-149 3980.5,-149"/>
<text text-anchor="middle" x="3925" y="-128.2" font-family="DejaVu Sans" font-size="11.00" fill="#dcefd9">org.gtk.vfs.Daemon</text>
</g>
<!-- org.gtk.vfs.mountpoint_114581 -->
<g id="node30" class="node">
<title>org.gtk.vfs.mountpoint_114581</title>
<path fill="#0b1017" stroke="#6ee7b7" stroke-width="1.4" d="M4012,-262C4012,-262 3838,-262 3838,-262 3832,-262 3826,-256 3826,-250 3826,-250 3826,-238 3826,-238 3826,-232 3832,-226 3838,-226 3838,-226 4012,-226 4012,-226 4018,-226 4024,-232 4024,-238 4024,-238 4024,-250 4024,-250 4024,-256 4018,-262 4012,-262"/>
<text text-anchor="middle" x="3925" y="-241.2" font-family="DejaVu Sans" font-size="11.00" fill="#dcefd9">org.gtk.vfs.mountpoint_114581</text>
</g>
<!-- org.gtk.vfs.mountpoint_114581&#45;&gt;org.gtk.vfs.Daemon -->
<g id="edge30" class="edge">
<title>org.gtk.vfs.mountpoint_114581&#45;&gt;org.gtk.vfs.Daemon</title>
<g id="a_edge30"><a xlink:title="102 calls">
<path fill="none" stroke="#60a5fa" stroke-width="1.6" d="M3925,-225.66C3925,-207.33 3925,-178.24 3925,-157.34"/>
<polygon fill="#60a5fa" stroke="#60a5fa" stroke-width="1.6" points="3927.8,-157.22 3925,-149.22 3922.2,-157.22 3927.8,-157.22"/>
</a>
</g>
<text text-anchor="middle" x="3934.5" y="-185" font-family="DejaVu Sans" font-size="10.00" fill="#fcd34d">102</text>
</g>
</g>
</svg>
